<svg xmlns="http://www.w3.org/2000/svg" width="1691" height="509.867" viewBox="0 0 1691 509.867"><g transform="translate(-176 -133.133)"><ellipse cx="40.073" cy="40.073" rx="40.073" ry="40.073" transform="translate(245.409 242.615) rotate(-150)" fill="#354367"/><path d="M0,34.384A40.059,40.059,0,0,0,20.343,69.271,40.053,40.053,0,0,0,39.821,34.888,40.059,40.059,0,0,0,19.479,0,40.054,40.054,0,0,0,0,34.384Z" transform="translate(248.511 238.25) rotate(-150)" fill="#fff"/><line x1="1553" transform="translate(234.5 642.5)" fill="none" stroke="#354367" stroke-width="1"/><rect width="30" height="30" transform="translate(1699 163.287) rotate(45)" fill="#354367"/><rect width="30" height="30" transform="translate(1721.787 185.213) rotate(45)" fill="#354367" opacity="0.2"/><rect width="30" height="30" transform="translate(1676.787 185.213) rotate(45)" fill="#354367" opacity="0.2"/><rect width="30" height="30" transform="translate(1699.574 207.287) rotate(45)" fill="#354367" opacity="0.2"/><line y2="259" transform="translate(234.5 383.5)" fill="none" stroke="#354367" stroke-width="1"/><line y2="168" transform="translate(1717.5 474.5)" fill="none" stroke="#354367" stroke-width="1"/><g transform="translate(1698 285)" fill="#fff" stroke="#354367" stroke-width="1"><circle cx="39.5" cy="39.5" r="39.5" stroke="none"/><circle cx="39.5" cy="39.5" r="39" fill="none"/></g><g transform="translate(234.018 344.5)" fill="#fff" stroke="#354367" stroke-width="1"><circle cx="39.5" cy="39.5" r="39.5" stroke="none"/><circle cx="39.5" cy="39.5" r="39" fill="none"/></g><g transform="translate(1582 480)" fill="#fff" stroke="#354367" stroke-width="1"><rect width="285" height="54" rx="27" stroke="none"/><rect x="0.5" y="0.5" width="284" height="53" rx="26.5" fill="none"/></g><g transform="translate(1823.396 495)" opacity="0.6"><g transform="translate(-0.396)" stroke="#354367" stroke-width="1" opacity="0"><rect width="24" height="24" stroke="none"/><rect x="0.5" y="0.5" width="23" height="23" fill="none"/></g><path d="M9.5,3a6.5,6.5,0,0,1,4.94,10.73l.27.27h.79l5,5L19,20.5l-5-5v-.79l-.27-.27A6.5,6.5,0,1,1,9.5,3m0,2A4.5,4.5,0,1,0,14,9.5,4.481,4.481,0,0,0,9.5,5Z" transform="translate(0)" stroke="#354367" stroke-width="1"/></g><g transform="translate(-2 60)"><g transform="translate(1693 257)" fill="#fff"><path d="M 91.13573455810547 79.5 L 0.8642691373825073 79.5 L 46 1.003076672554016 L 91.13573455810547 79.5 Z" stroke="none"/><path d="M 46 2.006149291992188 L 1.728538513183594 79 L 90.27146148681641 79 L 46 2.006149291992188 M 46 0 L 92 80 L 0 80 L 46 0 Z" stroke="none" fill="#354367"/></g><line y2="83" transform="translate(1739.5 337.5)" fill="none" stroke="#354367" stroke-width="1"/></g><g transform="translate(-1423.518 222)"><g transform="translate(1693 257)" fill="#fff"><path d="M 91.13573455810547 79.5 L 0.8642691373825073 79.5 L 46 1.003076672554016 L 91.13573455810547 79.5 Z" stroke="none"/><path d="M 46 2.006149291992188 L 1.728538513183594 79 L 90.27146148681641 79 L 46 2.006149291992188 M 46 0 L 92 80 L 0 80 L 46 0 Z" stroke="none" fill="#354367"/></g><line y2="83" transform="translate(1739.5 337.5)" fill="none" stroke="#354367" stroke-width="1"/></g><g transform="translate(5 154.579)"><g transform="translate(1693 256.921)" fill="#fff"><path d="M 38.13683319091797 33.5 L 0.8631658554077148 33.5 L 19.5 1.005007147789001 L 38.13683319091797 33.5 Z" stroke="none"/><path d="M 19.5 2.010004043579102 L 1.726325988769531 33 L 37.27367401123047 33 L 19.5 2.010004043579102 M 19.5 0 L 39 34 L 0 34 L 19.5 0 Z" stroke="none" fill="#354367"/></g><line y2="34.734" transform="translate(1712.459 290.688)" fill="none" stroke="#354367" stroke-width="1"/></g><g transform="translate(-1416.518 316.579)"><g transform="translate(1693 256.921)" fill="#fff"><path d="M 38.13683319091797 33.5 L 0.8631658554077148 33.5 L 19.5 1.005007147789001 L 38.13683319091797 33.5 Z" stroke="none"/><path d="M 19.5 2.010004043579102 L 1.726325988769531 33 L 37.27367401123047 33 L 19.5 2.010004043579102 M 19.5 0 L 39 34 L 0 34 L 19.5 0 Z" stroke="none" fill="#354367"/></g><line y2="34.734" transform="translate(1712.459 290.688)" fill="none" stroke="#354367" stroke-width="1"/></g><g transform="translate(2789 477)" fill="#fff"><path d="M -1083.499755859375 155.4997100830078 L -1139.500366210938 155.4997100830078 L -1139.500366210938 136.9998016357422 L -1139.500366210938 136.4998016357422 L -1140.000366210938 136.4998016357422 L -1167.500244140625 136.4998016357422 L -1167.500244140625 89.50009918212891 L -1111.499633789062 89.50009918212891 L -1111.499633789062 108 L -1111.499633789062 108.5 L -1110.999633789062 108.5 L -1083.499755859375 108.5 L -1083.499755859375 155.4997100830078 Z" stroke="none"/><path d="M -1083.999755859375 154.9997100830078 L -1083.999755859375 109 L -1111.999633789062 109 L -1111.999633789062 90.00009918212891 L -1167.000244140625 90.00009918212891 L -1167.000244140625 135.9998016357422 L -1139.000366210938 135.9998016357422 L -1139.000366210938 154.9997100830078 L -1083.999755859375 154.9997100830078 M -1082.999755859375 155.9997100830078 L -1140.000366210938 155.9997100830078 L -1140.000366210938 136.9998016357422 L -1168.000244140625 136.9998016357422 L -1168.000244140625 89.00009918212891 L -1110.999633789062 89.00009918212891 L -1110.999633789062 108 L -1082.999755859375 108 L -1082.999755859375 155.9997100830078 Z" stroke="none" fill="#354367"/></g><g transform="translate(1816 633) rotate(180)" fill="#fff"><path d="M 56.5006103515625 66.49960327148438 L 0.4999997019767761 66.49960327148438 L 0.4999997019767761 19.49991226196289 L 27.9998779296875 19.49991226196289 L 28.4998779296875 19.49991226196289 L 28.4998779296875 18.99991226196289 L 28.4998779296875 0.5000016093254089 L 84.50048828125 0.5000016093254089 L 84.50048828125 47.49971389770508 L 57.0006103515625 47.49971389770508 L 56.5006103515625 47.49971389770508 L 56.5006103515625 47.99971389770508 L 56.5006103515625 66.49960327148438 Z" stroke="none"/><path d="M 28.9998779296875 1 L 28.9998779296875 19.99990844726562 L 1 19.99990844726562 L 1 65.99960327148438 L 56.0006103515625 65.99960327148438 L 56.0006103515625 46.99971008300781 L 84.00048828125 46.99971008300781 L 84.00048828125 1 L 28.9998779296875 1 M 27.9998779296875 0 L 85.00048828125 0 L 85.00048828125 47.99971008300781 L 57.0006103515625 47.99971008300781 L 57.0006103515625 66.99960327148438 L 0 66.99960327148438 L 0 18.99990844726562 L 27.9998779296875 18.99990844726562 L 27.9998779296875 0 Z" stroke="none" fill="#354367"/></g><g transform="translate(-1425.773 -209.14)"><g transform="translate(1624.729 513.255)" fill="none"><path d="M77.525,77.526H0V0H62.513L77.525,15.012V77.526Z" stroke="none"/><path d="M 76.52532958984375 76.52555084228516 L 76.52532958984375 15.42672538757324 L 62.09859848022461 1.000003099441528 L 0.999998152256012 1.000003099441528 L 0.999998152256012 76.52555084228516 L 76.52532958984375 76.52555084228516 M 77.52532958984375 77.52618408203125 L 77.52532958984375 77.52555084228516 L -1.871744757409033e-06 77.52555084228516 L -1.871744757409033e-06 3.152126737404615e-06 L 62.51282119750977 3.152126737404615e-06 L 77.52532958984375 15.0125036239624 L 77.52532958984375 77.52618408203125 Z" stroke="none" fill="#707070"/></g><line y1="11.383" transform="translate(1624.729 499.5)" fill="none" stroke="#707070" stroke-width="1"/><line y1="11.383" transform="translate(1621.883 514.203) rotate(90)" fill="none" stroke="#707070" stroke-width="1"/></g></g></svg>