<svg xmlns="http://www.w3.org/2000/svg" width="1721.405" height="536" viewBox="0 0 1721.405 536">
  <g id="Group_50" data-name="Group 50" transform="translate(-70.595 -992)">
    <g id="Ellipse_13" data-name="Ellipse 13" transform="translate(1478 1343)" fill="none" stroke="#fff" stroke-width="1" opacity="0.15">
      <circle cx="92.5" cy="92.5" r="92.5" stroke="none"/>
      <circle cx="92.5" cy="92.5" r="92" fill="none"/>
    </g>
    <g id="Ellipse_14" data-name="Ellipse 14" transform="translate(275 1238)" fill="none" stroke="#fff" stroke-width="1" opacity="0.15">
      <circle cx="52.5" cy="52.5" r="52.5" stroke="none"/>
      <circle cx="52.5" cy="52.5" r="52" fill="none"/>
    </g>
    <g id="Polygon_7" data-name="Polygon 7" transform="translate(70.595 992)" fill="none" opacity="0.12">
      <path d="M81.953,0l81.953,59.4-31.3,96.1H31.3L0,59.4Z" stroke="none"/>
      <path d="M 81.95270538330078 1.235015869140625 L 1.176300048828125 59.77822113037109 L 32.02915954589844 154.5 L 131.8762817382812 154.5 L 162.7291107177734 59.77822113037109 L 81.95270538330078 1.235015869140625 M 81.95270538330078 0 L 163.9054107666016 59.39572906494141 L 132.6022644042969 155.5 L 31.30316162109375 155.5 L 0 59.39572906494141 L 81.95270538330078 0 Z" stroke="none" fill="#fff"/>
    </g>
    <g id="Polygon_8" data-name="Polygon 8" transform="translate(1664 1003)" fill="none" opacity="0.12">
      <path d="M64,0l64,111H0Z" stroke="none"/>
      <path d="M 63.99999618530273 2.00201416015625 L 1.730888366699219 110 L 126.2691040039062 110 L 63.99999618530273 2.00201416015625 M 63.99999618530273 0 L 128 111 L -7.62939453125e-06 111 L 63.99999618530273 0 Z" stroke="none" fill="#fff"/>
    </g>
  </g>
</svg>
