<?xml version="1.0" encoding="utf-8"?>
<!-- Generator: Adobe Illustrator 16.0.0, SVG Export Plug-In . SVG Version: 6.00 Build 0)  -->
<!DOCTYPE svg PUBLIC "-//W3C//DTD SVG 1.1//EN" "http://www.w3.org/Graphics/SVG/1.1/DTD/svg11.dtd">
<svg version="1.1" id="Isolation_Mode" xmlns="http://www.w3.org/2000/svg" xmlns:xlink="http://www.w3.org/1999/xlink" x="0px"
	 y="0px" width="80.742px" height="162.367px" viewBox="0 0 80.742 162.367" enable-background="new 0 0 80.742 162.367"
	 xml:space="preserve">
<g>
	<g>
		<g>
			<g>
				<path fill="#ffde00" d="M19.82,19.627c2.673-1.247,4.53-3.531,5.318-6.15c-2.512-1.08-5.456-1.126-8.129,0.121
					s-4.53,3.531-5.317,6.15C14.203,20.828,17.147,20.874,19.82,19.627z"/>
				<path fill="#ffde00" d="M18.999,8.129c1.247,2.673,3.531,4.53,6.15,5.317c1.08-2.512,1.126-5.456-0.12-8.129
					c-1.247-2.673-3.531-4.53-6.15-5.318C17.798,2.512,17.752,5.456,18.999,8.129z"/>
			</g>
			<g>
				<path fill="#ffde00" d="M30.41,25.006c2.849-0.764,5.075-2.691,6.305-5.133c-2.286-1.5-5.177-2.057-8.026-1.293
					c-2.849,0.763-5.074,2.691-6.305,5.133C24.67,25.213,27.561,25.77,30.41,25.006z"/>
				<path fill="#ffde00" d="M31.598,13.541c0.763,2.849,2.691,5.074,5.133,6.305c1.5-2.287,2.057-5.178,1.293-8.027
					c-0.764-2.849-2.691-5.074-5.133-6.305C31.391,7.8,30.834,10.691,31.598,13.541z"/>
			</g>
			<g>
				<path fill="#ffde00" d="M39.912,32.157c2.938-0.257,5.465-1.769,7.101-3.96c-1.991-1.874-4.742-2.924-7.68-2.667
					c-2.938,0.257-5.464,1.769-7.1,3.96C34.224,31.363,36.974,32.414,39.912,32.157z"/>
				<path fill="#ffde00" d="M43.073,21.071c0.257,2.938,1.769,5.464,3.96,7.1c1.874-1.991,2.924-4.741,2.667-7.68
					c-0.257-2.938-1.769-5.465-3.96-7.1C43.866,15.383,42.816,18.133,43.073,21.071z"/>
			</g>
			<g>
				<path fill="#ffde00" d="M48.038,40.862c2.938,0.257,5.688-0.793,7.68-2.667c-1.636-2.191-4.162-3.703-7.1-3.96
					c-2.938-0.257-5.688,0.793-7.68,2.667C42.573,39.093,45.099,40.604,48.038,40.862z"/>
				<path fill="#ffde00" d="M53.075,30.494c-0.257,2.938,0.793,5.688,2.667,7.68c2.191-1.635,3.703-4.162,3.96-7.1
					c0.257-2.938-0.793-5.688-2.667-7.68C54.844,25.029,53.332,27.555,53.075,30.494z"/>
			</g>
			<g>
				<path fill="#ffde00" d="M54.539,50.856c2.849,0.763,5.74,0.207,8.027-1.293c-1.23-2.442-3.456-4.37-6.305-5.133
					c-2.849-0.763-5.74-0.207-8.027,1.293C49.464,48.166,51.689,50.093,54.539,50.856z"/>
				<path fill="#ffde00" d="M61.3,41.521c-0.764,2.849-0.207,5.74,1.293,8.026c2.442-1.23,4.37-3.455,5.133-6.304
					c0.763-2.849,0.207-5.74-1.293-8.027C63.991,36.446,62.063,38.671,61.3,41.521z"/>
			</g>
			<g>
				<path fill="#ffde00" d="M59.219,61.837c2.673,1.247,5.617,1.2,8.129,0.12c-0.788-2.619-2.645-4.903-5.317-6.15
					c-2.673-1.247-5.617-1.2-8.129-0.12C54.688,58.306,56.545,60.591,59.219,61.837z"/>
				<path fill="#ffde00" d="M67.499,53.817c-1.247,2.673-1.2,5.617-0.121,8.129c2.619-0.787,4.903-2.644,6.15-5.317
					s1.2-5.617,0.121-8.129C71.03,49.288,68.745,51.144,67.499,53.817z"/>
			</g>
			<g>
				<path fill="#ffde00" d="M61.935,73.471c2.417,1.692,5.323,2.157,7.985,1.53c-0.321-2.715-1.752-5.288-4.169-6.979
					c-2.416-1.692-5.323-2.158-7.984-1.53C58.087,69.207,59.519,71.779,61.935,73.471z"/>
				<path fill="#ffde00" d="M71.481,67.01c-1.692,2.417-2.158,5.323-1.53,7.985c2.716-0.321,5.288-1.752,6.98-4.169
					c1.692-2.416,2.157-5.323,1.53-7.984C75.746,63.163,73.173,64.594,71.481,67.01z"/>
			</g>
			<g>
				<path fill="#ffde00" d="M62.604,85.403c2.085,2.085,4.868,3.049,7.598,2.893c0.155-2.73-0.808-5.512-2.894-7.598
					c-2.085-2.085-4.868-3.049-7.598-2.894C59.556,80.535,60.519,83.317,62.604,85.403z"/>
				<path fill="#ffde00" d="M73.128,80.698c-2.086,2.086-3.049,4.868-2.894,7.598c2.73,0.156,5.512-0.808,7.598-2.893
					c2.086-2.086,3.049-4.868,2.894-7.598C77.996,77.649,75.214,78.613,73.128,80.698z"/>
			</g>
			<g>
				<path fill="#ffde00" d="M61.2,97.181c1.692,2.416,4.264,3.848,6.98,4.169c0.627-2.662,0.162-5.569-1.53-7.985
					s-4.264-3.848-6.98-4.169C59.042,91.858,59.508,94.765,61.2,97.181z"/>
				<path fill="#ffde00" d="M72.38,94.376c-2.417,1.692-3.848,4.264-4.169,6.98c2.662,0.627,5.568,0.161,7.985-1.53
					c2.416-1.692,3.848-4.265,4.168-6.98C77.703,92.218,74.796,92.684,72.38,94.376z"/>
			</g>
			<g>
				<path fill="#ffde00" d="M57.756,108.538c1.246,2.674,3.531,4.53,6.15,5.318c1.08-2.513,1.126-5.456-0.121-8.13
					c-1.247-2.673-3.531-4.529-6.15-5.317C56.555,102.921,56.509,105.865,57.756,108.538z"/>
				<path fill="#ffde00" d="M69.253,107.716c-2.673,1.247-4.53,3.531-5.317,6.15c2.512,1.08,5.456,1.126,8.129-0.12
					c2.673-1.247,4.53-3.531,5.317-6.15C74.871,106.516,71.927,106.47,69.253,107.716z"/>
			</g>
			<g>
				<path fill="#ffde00" d="M52.376,119.128c0.764,2.849,2.691,5.074,5.133,6.305c1.5-2.286,2.057-5.178,1.293-8.026
					c-0.763-2.85-2.691-5.074-5.133-6.305C52.17,113.388,51.613,116.279,52.376,119.128z"/>
				<path fill="#ffde00" d="M63.842,120.316c-2.849,0.764-5.074,2.691-6.304,5.134c2.286,1.499,5.177,2.056,8.026,1.293
					c2.849-0.764,5.074-2.691,6.304-5.134C69.583,120.11,66.691,119.553,63.842,120.316z"/>
			</g>
			<g>
				<path fill="#ffde00" d="M45.226,128.63c0.257,2.938,1.769,5.465,3.96,7.101c1.874-1.991,2.924-4.742,2.667-7.681
					c-0.257-2.938-1.769-5.464-3.96-7.1C46.019,122.942,44.969,125.692,45.226,128.63z"/>
				<path fill="#ffde00" d="M56.312,131.792c-2.938,0.257-5.465,1.769-7.1,3.96c1.991,1.874,4.741,2.925,7.68,2.667
					c2.938-0.257,5.465-1.769,7.101-3.96C62,132.584,59.25,131.534,56.312,131.792z"/>
			</g>
			<g>
				<path fill="#ffde00" d="M36.521,136.755c-0.257,2.938,0.793,5.688,2.667,7.681c2.191-1.636,3.703-4.162,3.96-7.101
					c0.257-2.938-0.793-5.688-2.667-7.681C38.29,131.292,36.778,133.817,36.521,136.755z"/>
				<path fill="#ffde00" d="M46.889,141.793c-2.938-0.258-5.688,0.793-7.68,2.667c1.635,2.191,4.162,3.703,7.1,3.96
					c2.938,0.258,5.688-0.793,7.68-2.667C52.354,143.562,49.828,142.05,46.889,141.793z"/>
			</g>
			<g>
				<path fill="#ffde00" d="M26.526,143.256c-0.763,2.85-0.207,5.74,1.293,8.027c2.442-1.23,4.37-3.456,5.133-6.305
					c0.763-2.85,0.207-5.74-1.293-8.026C29.217,138.182,27.29,140.408,26.526,143.256z"/>
				<path fill="#ffde00" d="M35.862,150.018c-2.849-0.764-5.74-0.206-8.026,1.293c1.23,2.442,3.455,4.37,6.304,5.134
					c2.849,0.763,5.74,0.206,8.027-1.294C40.937,152.709,38.711,150.782,35.862,150.018z"/>
			</g>
			<g>
				<path fill="#ffde00" d="M15.545,147.937c-1.247,2.673-1.2,5.616-0.12,8.129c2.619-0.788,4.903-2.645,6.15-5.317
					c1.247-2.674,1.2-5.617,0.12-8.13C19.077,143.407,16.792,145.263,15.545,147.937z"/>
				<path fill="#ffde00" d="M23.565,156.216c-2.673-1.246-5.617-1.2-8.129-0.12c0.788,2.618,2.645,4.903,5.318,6.149
					c2.673,1.247,5.617,1.201,8.129,0.121C28.095,159.748,26.239,157.463,23.565,156.216z"/>
			</g>
		</g>
		<path fill="#ffde00" d="M5.833,9.849c2.772,1.009,5.7,0.707,8.108-0.588c-1.013-2.54-3.061-4.654-5.833-5.663
			C5.337,2.589,2.408,2.892,0,4.186C1.013,6.726,3.061,8.84,5.833,9.849z"/>
	</g>
	<path fill="#ffde00" d="M15.653,156.822c0.897-0.304,1.731-0.587,2.49-0.852c31.684-11.09,52.972-40.416,52.972-72.974
		c0-36.637-26.927-68.597-64.027-75.993L6.853,8.184c36.539,7.284,63.059,38.747,63.059,74.812
		c0,32.047-20.964,60.917-52.166,71.836c-0.756,0.265-1.585,0.546-2.479,0.85"/>
</g>
</svg>