<?xml version="1.0" encoding="utf-8"?>
<!-- Generator: Adobe Illustrator 16.0.0, SVG Export Plug-In . SVG Version: 6.00 Build 0)  -->
<!DOCTYPE svg PUBLIC "-//W3C//DTD SVG 1.1//EN" "http://www.w3.org/Graphics/SVG/1.1/DTD/svg11.dtd">
<svg version="1.1" id="Isolation_Mode" xmlns="http://www.w3.org/2000/svg" xmlns:xlink="http://www.w3.org/1999/xlink" x="0px"
	 y="0px" width="80.742px" height="162.367px" viewBox="0 0 80.742 162.367" enable-background="new 0 0 80.742 162.367"
	 xml:space="preserve">
<g>
	<g>
		<g>
			<g>
				<path fill="#ffde00" d="M60.922,19.627c-2.673-1.247-4.53-3.531-5.318-6.15c2.512-1.08,5.456-1.126,8.129,0.121
					s4.53,3.531,5.317,6.15C66.539,20.828,63.595,20.874,60.922,19.627z"/>
				<path fill="#ffde00" d="M61.743,8.129c-1.247,2.673-3.531,4.53-6.15,5.317c-1.08-2.512-1.126-5.456,0.12-8.129
					c1.247-2.673,3.531-4.53,6.15-5.318C62.943,2.512,62.99,5.456,61.743,8.129z"/>
			</g>
			<g>
				<path fill="#ffde00" d="M50.332,25.006c-2.849-0.764-5.075-2.691-6.305-5.133c2.286-1.5,5.177-2.057,8.026-1.293
					c2.849,0.763,5.074,2.691,6.305,5.133C56.071,25.213,53.181,25.77,50.332,25.006z"/>
				<path fill="#ffde00" d="M49.144,13.541c-0.763,2.849-2.691,5.074-5.133,6.305c-1.5-2.287-2.057-5.178-1.293-8.027
					c0.764-2.849,2.691-5.074,5.133-6.305C49.351,7.8,49.907,10.691,49.144,13.541z"/>
			</g>
			<g>
				<path fill="#ffde00" d="M40.83,32.157c-2.938-0.257-5.465-1.769-7.101-3.96c1.991-1.874,4.742-2.924,7.68-2.667
					c2.938,0.257,5.464,1.769,7.1,3.96C46.518,31.363,43.768,32.414,40.83,32.157z"/>
				<path fill="#ffde00" d="M37.668,21.071c-0.257,2.938-1.769,5.464-3.96,7.1c-1.874-1.991-2.924-4.741-2.667-7.68
					c0.257-2.938,1.769-5.465,3.96-7.1C36.875,15.383,37.926,18.133,37.668,21.071z"/>
			</g>
			<g>
				<path fill="#ffde00" d="M32.704,40.862c-2.938,0.257-5.688-0.793-7.68-2.667c1.636-2.191,4.162-3.703,7.1-3.96
					c2.938-0.257,5.688,0.793,7.68,2.667C38.169,39.093,35.643,40.604,32.704,40.862z"/>
				<path fill="#ffde00" d="M27.667,30.494c0.257,2.938-0.793,5.688-2.667,7.68c-2.191-1.635-3.703-4.162-3.96-7.1
					c-0.257-2.938,0.793-5.688,2.667-7.68C25.898,25.029,27.41,27.555,27.667,30.494z"/>
			</g>
			<g>
				<path fill="#ffde00" d="M26.203,50.856c-2.849,0.763-5.74,0.207-8.027-1.293c1.23-2.442,3.456-4.37,6.305-5.133
					c2.849-0.763,5.74-0.207,8.027,1.293C31.277,48.166,29.052,50.093,26.203,50.856z"/>
				<path fill="#ffde00" d="M19.441,41.521c0.764,2.849,0.207,5.74-1.293,8.026c-2.442-1.23-4.37-3.455-5.133-6.304
					c-0.763-2.849-0.207-5.74,1.293-8.027C16.75,36.446,18.678,38.671,19.441,41.521z"/>
			</g>
			<g>
				<path fill="#ffde00" d="M21.523,61.837c-2.673,1.247-5.617,1.2-8.129,0.12c0.788-2.619,2.645-4.903,5.317-6.15
					c2.673-1.247,5.617-1.2,8.129-0.12C26.053,58.306,24.196,60.591,21.523,61.837z"/>
				<path fill="#ffde00" d="M13.243,53.817c1.247,2.673,1.2,5.617,0.121,8.129c-2.619-0.787-4.903-2.644-6.15-5.317
					s-1.2-5.617-0.121-8.129C9.712,49.288,11.997,51.144,13.243,53.817z"/>
			</g>
			<g>
				<path fill="#ffde00" d="M18.807,73.471c-2.417,1.692-5.323,2.157-7.985,1.53c0.321-2.715,1.752-5.288,4.169-6.979
					c2.416-1.692,5.323-2.158,7.984-1.53C22.655,69.207,21.223,71.779,18.807,73.471z"/>
				<path fill="#ffde00" d="M9.26,67.01c1.692,2.417,2.158,5.323,1.53,7.985c-2.716-0.321-5.288-1.752-6.98-4.169
					c-1.692-2.416-2.157-5.323-1.53-7.984C4.996,63.163,7.568,64.594,9.26,67.01z"/>
			</g>
			<g>
				<path fill="#ffde00" d="M18.137,85.403c-2.085,2.085-4.868,3.049-7.598,2.893c-0.155-2.73,0.808-5.512,2.894-7.598
					c2.085-2.085,4.868-3.049,7.598-2.894C21.186,80.535,20.223,83.317,18.137,85.403z"/>
				<path fill="#ffde00" d="M7.614,80.698c2.086,2.086,3.049,4.868,2.894,7.598c-2.73,0.156-5.512-0.808-7.598-2.893
					c-2.086-2.086-3.049-4.868-2.894-7.598C2.746,77.649,5.528,78.613,7.614,80.698z"/>
			</g>
			<g>
				<path fill="#ffde00" d="M19.542,97.181c-1.692,2.416-4.264,3.848-6.98,4.169c-0.627-2.662-0.162-5.569,1.53-7.985
					s4.264-3.848,6.98-4.169C21.699,91.858,21.234,94.765,19.542,97.181z"/>
				<path fill="#ffde00" d="M8.361,94.376c2.417,1.692,3.848,4.264,4.169,6.98c-2.662,0.627-5.568,0.161-7.985-1.53
					c-2.416-1.692-3.848-4.265-4.168-6.98C3.039,92.218,5.945,92.684,8.361,94.376z"/>
			</g>
			<g>
				<path fill="#ffde00" d="M22.986,108.538c-1.246,2.674-3.531,4.53-6.15,5.318c-1.08-2.513-1.126-5.456,0.121-8.13
					c1.247-2.673,3.531-4.529,6.15-5.317C24.187,102.921,24.232,105.865,22.986,108.538z"/>
				<path fill="#ffde00" d="M11.488,107.716c2.673,1.247,4.53,3.531,5.317,6.15c-2.512,1.08-5.456,1.126-8.129-0.12
					c-2.673-1.247-4.53-3.531-5.317-6.15C5.871,106.516,8.815,106.47,11.488,107.716z"/>
			</g>
			<g>
				<path fill="#ffde00" d="M28.365,119.128c-0.764,2.849-2.691,5.074-5.133,6.305c-1.5-2.286-2.057-5.178-1.293-8.026
					c0.763-2.85,2.691-5.074,5.133-6.305C28.572,113.388,29.128,116.279,28.365,119.128z"/>
				<path fill="#ffde00" d="M16.899,120.316c2.849,0.764,5.074,2.691,6.304,5.134c-2.286,1.499-5.177,2.056-8.026,1.293
					c-2.849-0.764-5.074-2.691-6.304-5.134C11.159,120.11,14.05,119.553,16.899,120.316z"/>
			</g>
			<g>
				<path fill="#ffde00" d="M35.516,128.63c-0.257,2.938-1.769,5.465-3.96,7.101c-1.874-1.991-2.924-4.742-2.667-7.681
					c0.257-2.938,1.769-5.464,3.96-7.1C34.723,122.942,35.772,125.692,35.516,128.63z"/>
				<path fill="#ffde00" d="M24.43,131.792c2.938,0.257,5.465,1.769,7.1,3.96c-1.991,1.874-4.741,2.925-7.68,2.667
					c-2.938-0.257-5.465-1.769-7.101-3.96C18.742,132.584,21.492,131.534,24.43,131.792z"/>
			</g>
			<g>
				<path fill="#ffde00" d="M44.221,136.755c0.257,2.938-0.793,5.688-2.667,7.681c-2.191-1.636-3.703-4.162-3.96-7.101
					c-0.257-2.938,0.793-5.688,2.667-7.681C42.452,131.292,43.963,133.817,44.221,136.755z"/>
				<path fill="#ffde00" d="M33.853,141.793c2.938-0.258,5.688,0.793,7.68,2.667c-1.635,2.191-4.162,3.703-7.1,3.96
					c-2.938,0.258-5.688-0.793-7.68-2.667C28.388,143.562,30.914,142.05,33.853,141.793z"/>
			</g>
			<g>
				<path fill="#ffde00" d="M54.215,143.256c0.763,2.85,0.207,5.74-1.293,8.027c-2.442-1.23-4.37-3.456-5.133-6.305
					c-0.763-2.85-0.207-5.74,1.293-8.026C51.524,138.182,53.452,140.408,54.215,143.256z"/>
				<path fill="#ffde00" d="M44.879,150.018c2.849-0.764,5.74-0.206,8.026,1.293c-1.23,2.442-3.455,4.37-6.304,5.134
					c-2.849,0.763-5.74,0.206-8.027-1.294C39.805,152.709,42.03,150.782,44.879,150.018z"/>
			</g>
			<g>
				<path fill="#ffde00" d="M65.196,147.937c1.247,2.673,1.2,5.616,0.12,8.129c-2.619-0.788-4.903-2.645-6.15-5.317
					c-1.247-2.674-1.2-5.617-0.12-8.13C61.665,143.407,63.95,145.263,65.196,147.937z"/>
				<path fill="#ffde00" d="M57.176,156.216c2.673-1.246,5.617-1.2,8.129-0.12c-0.788,2.618-2.645,4.903-5.318,6.149
					c-2.673,1.247-5.617,1.201-8.129,0.121C52.646,159.748,54.503,157.463,57.176,156.216z"/>
			</g>
		</g>
		<path fill="#ffde00" d="M74.909,9.849c-2.772,1.009-5.7,0.707-8.108-0.588c1.013-2.54,3.061-4.654,5.833-5.663
			c2.771-1.009,5.7-0.706,8.108,0.588C79.729,6.726,77.681,8.84,74.909,9.849z"/>
	</g>
	<path fill="#ffde00" d="M65.088,156.822c-0.897-0.304-1.731-0.587-2.49-0.852C30.915,144.88,9.626,115.554,9.626,82.996
		c0-36.637,26.927-68.597,64.027-75.993l0.235,1.181C37.35,15.468,10.831,46.931,10.831,82.996
		c0,32.047,20.964,60.917,52.166,71.836c0.756,0.265,1.585,0.546,2.479,0.85"/>
</g>
</svg>