<?xml version="1.0" encoding="utf-8"?>
<!-- Generator: Adobe Illustrator 25.0.1, SVG Export Plug-In . SVG Version: 6.00 Build 0)  -->
<svg version="1.1" id="Layer_1" xmlns="http://www.w3.org/2000/svg" xmlns:xlink="http://www.w3.org/1999/xlink" x="0px" y="0px"
	 viewBox="0 0 355.28 67.89" style="enable-background:new 0 0 355.28 67.89;" xml:space="preserve">
<style type="text/css">
	.st0{fill:#FBB040;}
</style>
<polygon class="st0" points="38.25,1.1 48.46,21.77 71.27,25.09 54.76,41.18 58.66,63.9 38.25,53.17 17.85,63.9 21.75,41.18 
	5.24,25.09 28.05,21.77 "/>
<polygon class="st0" points="108.25,1.1 118.46,21.77 141.27,25.09 124.76,41.18 128.66,63.9 108.25,53.17 87.85,63.9 91.75,41.18 
	75.24,25.09 98.05,21.77 "/>
<polygon class="st0" points="178.25,1.1 188.46,21.77 211.27,25.09 194.76,41.18 198.66,63.9 178.25,53.17 157.85,63.9 
	161.75,41.18 145.24,25.09 168.05,21.77 "/>
<polygon class="st0" points="248.25,1.1 258.46,21.77 281.27,25.09 264.76,41.18 268.66,63.9 248.25,53.17 227.85,63.9 
	231.75,41.18 215.24,25.09 238.05,21.77 "/>
<polygon class="st0" points="319.25,1.1 329.46,21.77 352.27,25.09 335.76,41.18 339.66,63.9 319.25,53.17 298.85,63.9 
	302.75,41.18 286.24,25.09 309.05,21.77 "/>
<path class="st0" d="M334.76,41.18"/>
</svg>
